<mxfile host="app.diagrams.net" modified="2020-10-16T18:18:03.202Z" agent="5.0 (X11; Linux x86_64) AppleWebKit/537.36 (KHTML, like Gecko) Chrome/86.0.4240.75 Safari/537.36" etag="xboXvveM1EVcFPGVFzba" version="13.8.0" type="github">
  <diagram id="Y0KxQUBkyKEq2muDvGOm" name="Page-1">
    <mxGraphModel dx="3197" dy="1588" grid="1" gridSize="10" guides="1" tooltips="1" connect="1" arrows="1" fold="1" page="1" pageScale="1" pageWidth="827" pageHeight="1169" math="0" shadow="0">
      <root>
        <mxCell id="0" />
        <mxCell id="1" parent="0" />
        <mxCell id="inZ4FwlJiKwJhEzPIRPx-16" style="edgeStyle=orthogonalEdgeStyle;shape=link;rounded=0;orthogonalLoop=1;jettySize=auto;html=1;exitX=0.25;exitY=1;exitDx=0;exitDy=0;entryX=1;entryY=0.5;entryDx=0;entryDy=0;" parent="1" source="a2J0Nc1vYzjpuzIybUrS-55" target="cv97ledu6ouqQ9UIFpWF-8" edge="1">
          <mxGeometry relative="1" as="geometry">
            <Array as="points">
              <mxPoint x="-45" y="473.41" />
            </Array>
          </mxGeometry>
        </mxCell>
        <mxCell id="a2J0Nc1vYzjpuzIybUrS-55" value="" style="rounded=0;whiteSpace=wrap;html=1;dashed=1;fillColor=none;" parent="1" vertex="1">
          <mxGeometry x="-70" y="373.41" width="100" height="85.62" as="geometry" />
        </mxCell>
        <mxCell id="inZ4FwlJiKwJhEzPIRPx-18" style="edgeStyle=orthogonalEdgeStyle;shape=link;rounded=0;orthogonalLoop=1;jettySize=auto;html=1;exitX=1;exitY=0.75;exitDx=0;exitDy=0;entryX=1;entryY=0.5;entryDx=0;entryDy=0;" parent="1" source="a2J0Nc1vYzjpuzIybUrS-59" target="cv97ledu6ouqQ9UIFpWF-17" edge="1">
          <mxGeometry relative="1" as="geometry">
            <Array as="points">
              <mxPoint x="330" y="441.41" />
              <mxPoint x="330" y="723.41" />
            </Array>
          </mxGeometry>
        </mxCell>
        <mxCell id="a2J0Nc1vYzjpuzIybUrS-59" value="" style="rounded=0;whiteSpace=wrap;html=1;dashed=1;fillColor=none;" parent="1" vertex="1">
          <mxGeometry x="170" y="373.41" width="100" height="90" as="geometry" />
        </mxCell>
        <mxCell id="L2RW_gPPLHdNKHFFvyPd-22" style="edgeStyle=orthogonalEdgeStyle;rounded=0;orthogonalLoop=1;jettySize=auto;html=1;exitX=0.5;exitY=0;exitDx=0;exitDy=0;entryX=0;entryY=0.5;entryDx=0;entryDy=0;endArrow=none;endFill=0;" parent="1" source="L2RW_gPPLHdNKHFFvyPd-1" target="L2RW_gPPLHdNKHFFvyPd-8" edge="1">
          <mxGeometry relative="1" as="geometry">
            <Array as="points">
              <mxPoint x="-143" y="396.41" />
              <mxPoint x="-143" y="273.41" />
              <mxPoint x="97" y="273.41" />
            </Array>
          </mxGeometry>
        </mxCell>
        <mxCell id="VgiTeiBnJK4wXTCUt1GZ-3" style="rounded=0;orthogonalLoop=1;jettySize=auto;html=1;exitX=0.25;exitY=0;exitDx=0;exitDy=0;entryX=0.5;entryY=1;entryDx=0;entryDy=0;endArrow=none;endFill=0;" parent="1" source="a2J0Nc1vYzjpuzIybUrS-7" target="L2RW_gPPLHdNKHFFvyPd-5" edge="1">
          <mxGeometry relative="1" as="geometry">
            <mxPoint x="143.5" y="390.91" as="sourcePoint" />
          </mxGeometry>
        </mxCell>
        <mxCell id="L2RW_gPPLHdNKHFFvyPd-1" value="Power Line" style="rounded=0;whiteSpace=wrap;html=1;" parent="1" vertex="1">
          <mxGeometry x="-200" y="395.91" width="86" height="40" as="geometry" />
        </mxCell>
        <mxCell id="L2RW_gPPLHdNKHFFvyPd-21" style="edgeStyle=orthogonalEdgeStyle;rounded=0;orthogonalLoop=1;jettySize=auto;html=1;exitX=0.5;exitY=0;exitDx=0;exitDy=0;entryX=0;entryY=0.5;entryDx=0;entryDy=0;endArrow=none;endFill=0;" parent="1" target="L2RW_gPPLHdNKHFFvyPd-8" edge="1">
          <mxGeometry relative="1" as="geometry">
            <Array as="points">
              <mxPoint x="97" y="398.41" />
            </Array>
            <mxPoint x="97" y="395.91" as="sourcePoint" />
          </mxGeometry>
        </mxCell>
        <mxCell id="L2RW_gPPLHdNKHFFvyPd-28" style="rounded=0;orthogonalLoop=1;jettySize=auto;html=1;exitX=0.136;exitY=0.004;exitDx=0;exitDy=0;entryX=0.5;entryY=1;entryDx=0;entryDy=0;endArrow=none;endFill=0;exitPerimeter=0;" parent="1" source="L2RW_gPPLHdNKHFFvyPd-1" target="L2RW_gPPLHdNKHFFvyPd-4" edge="1">
          <mxGeometry relative="1" as="geometry">
            <mxPoint x="-173" y="395.90000000000003" as="sourcePoint" />
          </mxGeometry>
        </mxCell>
        <mxCell id="a2J0Nc1vYzjpuzIybUrS-54" style="edgeStyle=orthogonalEdgeStyle;rounded=0;orthogonalLoop=1;jettySize=auto;html=1;exitX=0;exitY=0.5;exitDx=0;exitDy=0;entryX=1;entryY=0.5;entryDx=0;entryDy=0;endArrow=none;endFill=0;startArrow=none;startFill=0;" parent="1" target="sUP068O2RiSsUyLgRWOE-22" edge="1">
          <mxGeometry relative="1" as="geometry">
            <mxPoint x="57" y="415.91" as="sourcePoint" />
          </mxGeometry>
        </mxCell>
        <mxCell id="L2RW_gPPLHdNKHFFvyPd-23" style="edgeStyle=orthogonalEdgeStyle;rounded=0;orthogonalLoop=1;jettySize=auto;html=1;entryX=0;entryY=0.5;entryDx=0;entryDy=0;endArrow=none;endFill=0;" parent="1" target="L2RW_gPPLHdNKHFFvyPd-8" edge="1">
          <mxGeometry relative="1" as="geometry">
            <Array as="points">
              <mxPoint x="340" y="396.41" />
              <mxPoint x="340" y="273.41" />
              <mxPoint x="97" y="273.41" />
            </Array>
            <mxPoint x="340" y="383.41" as="sourcePoint" />
          </mxGeometry>
        </mxCell>
        <mxCell id="L2RW_gPPLHdNKHFFvyPd-30" style="rounded=0;orthogonalLoop=1;jettySize=auto;html=1;exitX=0.5;exitY=1;exitDx=0;exitDy=0;entryX=0.5;entryY=0;entryDx=0;entryDy=0;endArrow=none;endFill=0;" parent="1" target="L2RW_gPPLHdNKHFFvyPd-6" edge="1">
          <mxGeometry relative="1" as="geometry">
            <mxPoint x="345" y="435.91" as="sourcePoint" />
          </mxGeometry>
        </mxCell>
        <mxCell id="L2RW_gPPLHdNKHFFvyPd-31" style="rounded=0;orthogonalLoop=1;jettySize=auto;html=1;exitX=0.5;exitY=1;exitDx=0;exitDy=0;entryX=0.5;entryY=0;entryDx=0;entryDy=0;endArrow=none;endFill=0;" parent="1" target="L2RW_gPPLHdNKHFFvyPd-7" edge="1">
          <mxGeometry relative="1" as="geometry">
            <mxPoint x="345" y="435.91" as="sourcePoint" />
          </mxGeometry>
        </mxCell>
        <mxCell id="L2RW_gPPLHdNKHFFvyPd-4" value="impedance" style="ellipse;whiteSpace=wrap;html=1;" parent="1" vertex="1">
          <mxGeometry x="-257" y="313.41" width="80" height="60" as="geometry" />
        </mxCell>
        <mxCell id="L2RW_gPPLHdNKHFFvyPd-5" value="operating voltage" style="ellipse;whiteSpace=wrap;html=1;" parent="1" vertex="1">
          <mxGeometry x="5" y="303.41" width="80" height="60" as="geometry" />
        </mxCell>
        <mxCell id="L2RW_gPPLHdNKHFFvyPd-6" value="operating voltage 1" style="ellipse;whiteSpace=wrap;html=1;" parent="1" vertex="1">
          <mxGeometry x="440" y="330.91" width="80" height="60" as="geometry" />
        </mxCell>
        <mxCell id="L2RW_gPPLHdNKHFFvyPd-7" value="&lt;span style=&quot;color: rgb(0 , 0 , 0) ; font-family: &amp;#34;helvetica&amp;#34; ; font-size: 12px ; font-style: normal ; font-weight: 400 ; letter-spacing: normal ; text-align: center ; text-indent: 0px ; text-transform: none ; word-spacing: 0px ; background-color: rgb(248 , 249 , 250) ; display: inline ; float: none&quot;&gt;operating voltage 2&lt;br&gt;&lt;/span&gt;" style="ellipse;whiteSpace=wrap;html=1;" parent="1" vertex="1">
          <mxGeometry x="360" y="295.91" width="80" height="60" as="geometry" />
        </mxCell>
        <mxCell id="L2RW_gPPLHdNKHFFvyPd-25" style="edgeStyle=orthogonalEdgeStyle;rounded=0;orthogonalLoop=1;jettySize=auto;html=1;exitX=1;exitY=0.5;exitDx=0;exitDy=0;entryX=0.5;entryY=1;entryDx=0;entryDy=0;endArrow=none;endFill=0;shape=link;" parent="1" source="L2RW_gPPLHdNKHFFvyPd-8" target="L2RW_gPPLHdNKHFFvyPd-24" edge="1">
          <mxGeometry relative="1" as="geometry" />
        </mxCell>
        <mxCell id="L2RW_gPPLHdNKHFFvyPd-8" value="&lt;b&gt;&lt;font style=&quot;font-size: 18px&quot;&gt;X&lt;/font&gt;&lt;/b&gt;" style="triangle;whiteSpace=wrap;html=1;direction=north;" parent="1" vertex="1">
          <mxGeometry x="74" y="203.41" width="46" height="40" as="geometry" />
        </mxCell>
        <mxCell id="L2RW_gPPLHdNKHFFvyPd-27" style="rounded=0;orthogonalLoop=1;jettySize=auto;html=1;exitX=0;exitY=0.5;exitDx=0;exitDy=0;entryX=1;entryY=0.5;entryDx=0;entryDy=0;endArrow=none;endFill=0;" parent="1" source="L2RW_gPPLHdNKHFFvyPd-24" target="L2RW_gPPLHdNKHFFvyPd-26" edge="1">
          <mxGeometry relative="1" as="geometry" />
        </mxCell>
        <mxCell id="q2oULeBiIMyMmIxV7hVm-10" style="edgeStyle=orthogonalEdgeStyle;rounded=0;orthogonalLoop=1;jettySize=auto;html=1;endArrow=none;endFill=0;exitX=1;exitY=0.5;exitDx=0;exitDy=0;entryX=0.5;entryY=0;entryDx=0;entryDy=0;" parent="1" source="L2RW_gPPLHdNKHFFvyPd-24" target="i0ntEIKi_8kebWYaH0-n-48" edge="1">
          <mxGeometry relative="1" as="geometry">
            <mxPoint x="1308" y="583.41" as="targetPoint" />
            <mxPoint x="955" y="43.41" as="sourcePoint" />
            <Array as="points">
              <mxPoint x="1117" y="153.41" />
            </Array>
          </mxGeometry>
        </mxCell>
        <mxCell id="L2RW_gPPLHdNKHFFvyPd-24" value="Element" style="rounded=0;whiteSpace=wrap;html=1;" parent="1" vertex="1">
          <mxGeometry x="57" y="133.41" width="80" height="40" as="geometry" />
        </mxCell>
        <mxCell id="L2RW_gPPLHdNKHFFvyPd-26" value="&lt;u&gt;ID&lt;/u&gt;" style="ellipse;whiteSpace=wrap;html=1;" parent="1" vertex="1">
          <mxGeometry x="-55" y="133.41" width="60" height="40" as="geometry" />
        </mxCell>
        <mxCell id="L2RW_gPPLHdNKHFFvyPd-34" style="edgeStyle=orthogonalEdgeStyle;rounded=0;orthogonalLoop=1;jettySize=auto;html=1;exitX=0.5;exitY=0;exitDx=0;exitDy=0;entryX=0;entryY=0.5;entryDx=0;entryDy=0;endArrow=none;endFill=0;" parent="1" source="L2RW_gPPLHdNKHFFvyPd-32" target="L2RW_gPPLHdNKHFFvyPd-8" edge="1">
          <mxGeometry relative="1" as="geometry">
            <Array as="points">
              <mxPoint x="-330" y="273.41" />
              <mxPoint x="97" y="273.41" />
            </Array>
          </mxGeometry>
        </mxCell>
        <mxCell id="L2RW_gPPLHdNKHFFvyPd-32" value="Breaker" style="rounded=0;whiteSpace=wrap;html=1;" parent="1" vertex="1">
          <mxGeometry x="-370" y="395.90000000000003" width="80" height="40" as="geometry" />
        </mxCell>
        <mxCell id="L2RW_gPPLHdNKHFFvyPd-38" style="rounded=0;jumpStyle=none;orthogonalLoop=1;jettySize=auto;html=1;exitX=1;exitY=0.5;exitDx=0;exitDy=0;entryX=0.25;entryY=0;entryDx=0;entryDy=0;endArrow=none;endFill=0;" parent="1" source="L2RW_gPPLHdNKHFFvyPd-35" target="L2RW_gPPLHdNKHFFvyPd-32" edge="1">
          <mxGeometry relative="1" as="geometry" />
        </mxCell>
        <mxCell id="L2RW_gPPLHdNKHFFvyPd-35" value="maximum voltage" style="ellipse;whiteSpace=wrap;html=1;" parent="1" vertex="1">
          <mxGeometry x="-460" y="355.91" width="80" height="60" as="geometry" />
        </mxCell>
        <mxCell id="L2RW_gPPLHdNKHFFvyPd-37" style="orthogonalLoop=1;jettySize=auto;html=1;exitX=0.5;exitY=0;exitDx=0;exitDy=0;entryX=0.25;entryY=0;entryDx=0;entryDy=0;endArrow=none;endFill=0;jumpStyle=none;rounded=0;" parent="1" source="L2RW_gPPLHdNKHFFvyPd-36" target="L2RW_gPPLHdNKHFFvyPd-32" edge="1">
          <mxGeometry relative="1" as="geometry" />
        </mxCell>
        <mxCell id="L2RW_gPPLHdNKHFFvyPd-36" value="maximum current" style="ellipse;whiteSpace=wrap;html=1;" parent="1" vertex="1">
          <mxGeometry x="-410" y="293.41" width="80" height="60" as="geometry" />
        </mxCell>
        <mxCell id="a2J0Nc1vYzjpuzIybUrS-136" style="edgeStyle=none;rounded=0;jumpSize=10;orthogonalLoop=1;jettySize=auto;html=1;exitX=0;exitY=0.5;exitDx=0;exitDy=0;entryX=1;entryY=0.5;entryDx=0;entryDy=0;startArrow=none;startFill=0;endArrow=none;endFill=0;strokeWidth=1;fillColor=none;" parent="1" source="L2RW_gPPLHdNKHFFvyPd-39" target="L2RW_gPPLHdNKHFFvyPd-66" edge="1">
          <mxGeometry relative="1" as="geometry" />
        </mxCell>
        <mxCell id="L2RW_gPPLHdNKHFFvyPd-39" value="Supervisor" style="rounded=0;whiteSpace=wrap;html=1;" parent="1" vertex="1">
          <mxGeometry x="604" y="784.0799999999999" width="80" height="40" as="geometry" />
        </mxCell>
        <mxCell id="L2RW_gPPLHdNKHFFvyPd-42" value="Person" style="rounded=0;whiteSpace=wrap;html=1;" parent="1" vertex="1">
          <mxGeometry x="669" y="621.5799999999999" width="86" height="40" as="geometry" />
        </mxCell>
        <mxCell id="L2RW_gPPLHdNKHFFvyPd-47" style="rounded=0;jumpStyle=none;orthogonalLoop=1;jettySize=auto;html=1;exitX=0.5;exitY=1;exitDx=0;exitDy=0;entryX=0.5;entryY=0;entryDx=0;entryDy=0;endArrow=none;endFill=0;" parent="1" source="L2RW_gPPLHdNKHFFvyPd-43" target="L2RW_gPPLHdNKHFFvyPd-42" edge="1">
          <mxGeometry relative="1" as="geometry" />
        </mxCell>
        <mxCell id="L2RW_gPPLHdNKHFFvyPd-43" value="&lt;u&gt;name&lt;/u&gt;" style="ellipse;whiteSpace=wrap;html=1;" parent="1" vertex="1">
          <mxGeometry x="539" y="511.58" width="80" height="60" as="geometry" />
        </mxCell>
        <mxCell id="L2RW_gPPLHdNKHFFvyPd-48" style="rounded=0;jumpStyle=none;orthogonalLoop=1;jettySize=auto;html=1;exitX=0.5;exitY=1;exitDx=0;exitDy=0;entryX=0.5;entryY=0;entryDx=0;entryDy=0;endArrow=none;endFill=0;" parent="1" source="L2RW_gPPLHdNKHFFvyPd-44" target="L2RW_gPPLHdNKHFFvyPd-42" edge="1">
          <mxGeometry relative="1" as="geometry" />
        </mxCell>
        <mxCell id="L2RW_gPPLHdNKHFFvyPd-44" value="&lt;u&gt;address&lt;/u&gt;" style="ellipse;whiteSpace=wrap;html=1;" parent="1" vertex="1">
          <mxGeometry x="639" y="511.58" width="80" height="60" as="geometry" />
        </mxCell>
        <mxCell id="L2RW_gPPLHdNKHFFvyPd-50" style="rounded=0;jumpStyle=none;orthogonalLoop=1;jettySize=auto;html=1;exitX=0.5;exitY=1;exitDx=0;exitDy=0;entryX=0.5;entryY=0;entryDx=0;entryDy=0;endArrow=none;endFill=0;" parent="1" source="L2RW_gPPLHdNKHFFvyPd-45" target="L2RW_gPPLHdNKHFFvyPd-42" edge="1">
          <mxGeometry relative="1" as="geometry" />
        </mxCell>
        <mxCell id="L2RW_gPPLHdNKHFFvyPd-45" value="phone number" style="ellipse;whiteSpace=wrap;html=1;" parent="1" vertex="1">
          <mxGeometry x="735" y="511.58" width="80" height="60" as="geometry" />
        </mxCell>
        <mxCell id="L2RW_gPPLHdNKHFFvyPd-51" style="rounded=0;jumpStyle=none;orthogonalLoop=1;jettySize=auto;html=1;exitX=0.5;exitY=1;exitDx=0;exitDy=0;entryX=0.5;entryY=0;entryDx=0;entryDy=0;endArrow=none;endFill=0;" parent="1" source="L2RW_gPPLHdNKHFFvyPd-46" target="L2RW_gPPLHdNKHFFvyPd-42" edge="1">
          <mxGeometry relative="1" as="geometry" />
        </mxCell>
        <mxCell id="L2RW_gPPLHdNKHFFvyPd-46" value="tax payer ID number" style="ellipse;whiteSpace=wrap;html=1;" parent="1" vertex="1">
          <mxGeometry x="825" y="511.58" width="80" height="60" as="geometry" />
        </mxCell>
        <mxCell id="L2RW_gPPLHdNKHFFvyPd-60" style="edgeStyle=orthogonalEdgeStyle;rounded=0;jumpStyle=none;orthogonalLoop=1;jettySize=auto;html=1;entryX=0;entryY=0.5;entryDx=0;entryDy=0;endArrow=none;endFill=0;" parent="1" target="L2RW_gPPLHdNKHFFvyPd-59" edge="1">
          <mxGeometry relative="1" as="geometry">
            <mxPoint x="647" y="781.41" as="sourcePoint" />
            <Array as="points">
              <mxPoint x="647" y="780.91" />
              <mxPoint x="647" y="750.91" />
              <mxPoint x="775" y="750.91" />
            </Array>
          </mxGeometry>
        </mxCell>
        <mxCell id="a2J0Nc1vYzjpuzIybUrS-153" style="edgeStyle=none;rounded=0;jumpSize=10;orthogonalLoop=1;jettySize=auto;html=1;exitX=1;exitY=0.5;exitDx=0;exitDy=0;entryX=0;entryY=0.5;entryDx=0;entryDy=0;startArrow=none;startFill=0;endArrow=none;endFill=0;strokeWidth=1;fillColor=none;" parent="1" source="L2RW_gPPLHdNKHFFvyPd-56" target="EDN94cZxPP0RlWnuWc6e-1" edge="1">
          <mxGeometry relative="1" as="geometry" />
        </mxCell>
        <mxCell id="L2RW_gPPLHdNKHFFvyPd-56" value="Analyst" style="rounded=0;whiteSpace=wrap;html=1;" parent="1" vertex="1">
          <mxGeometry x="735" y="782.2099999999999" width="86" height="40" as="geometry" />
        </mxCell>
        <mxCell id="L2RW_gPPLHdNKHFFvyPd-62" style="edgeStyle=orthogonalEdgeStyle;rounded=0;jumpStyle=none;orthogonalLoop=1;jettySize=auto;html=1;exitX=0;exitY=0.5;exitDx=0;exitDy=0;entryX=0.5;entryY=0;entryDx=0;entryDy=0;endArrow=none;endFill=0;" parent="1" source="L2RW_gPPLHdNKHFFvyPd-59" target="L2RW_gPPLHdNKHFFvyPd-56" edge="1">
          <mxGeometry relative="1" as="geometry" />
        </mxCell>
        <mxCell id="L2RW_gPPLHdNKHFFvyPd-63" style="edgeStyle=orthogonalEdgeStyle;rounded=0;jumpStyle=none;orthogonalLoop=1;jettySize=auto;html=1;exitX=1;exitY=0.5;exitDx=0;exitDy=0;entryX=0.5;entryY=1;entryDx=0;entryDy=0;endArrow=none;endFill=0;" parent="1" source="L2RW_gPPLHdNKHFFvyPd-59" target="L2RW_gPPLHdNKHFFvyPd-42" edge="1">
          <mxGeometry relative="1" as="geometry" />
        </mxCell>
        <mxCell id="L2RW_gPPLHdNKHFFvyPd-59" value="" style="triangle;whiteSpace=wrap;html=1;direction=north;" parent="1" vertex="1">
          <mxGeometry x="689" y="681.5799999999999" width="46" height="40" as="geometry" />
        </mxCell>
        <mxCell id="L2RW_gPPLHdNKHFFvyPd-66" value="" style="rhombus;whiteSpace=wrap;html=1;" parent="1" vertex="1">
          <mxGeometry x="499" y="784.0799999999999" width="40" height="40" as="geometry" />
        </mxCell>
        <mxCell id="a2J0Nc1vYzjpuzIybUrS-159" value="" style="edgeStyle=none;rounded=0;jumpSize=10;orthogonalLoop=1;jettySize=auto;html=1;startArrow=none;startFill=0;endArrow=none;endFill=0;strokeWidth=1;fillColor=none;exitX=0.75;exitY=0;exitDx=0;exitDy=0;" parent="1" source="dva9v5aQtzbPUR5y3_-g-8" target="q2oULeBiIMyMmIxV7hVm-17" edge="1">
          <mxGeometry relative="1" as="geometry">
            <mxPoint x="1140.3310309182343" y="779.0799999999999" as="sourcePoint" />
          </mxGeometry>
        </mxCell>
        <mxCell id="q2oULeBiIMyMmIxV7hVm-13" value="&amp;lt; happpens_in" style="text;html=1;strokeColor=none;fillColor=none;align=center;verticalAlign=middle;whiteSpace=wrap;rounded=0;rotation=90;" parent="1" vertex="1">
          <mxGeometry x="1109.5" y="636.5799999999999" width="84" height="20" as="geometry" />
        </mxCell>
        <mxCell id="a2J0Nc1vYzjpuzIybUrS-158" value="" style="edgeStyle=none;rounded=0;jumpSize=10;orthogonalLoop=1;jettySize=auto;html=1;startArrow=none;startFill=0;endArrow=none;endFill=0;strokeWidth=1;fillColor=none;entryX=1;entryY=0.5;entryDx=0;entryDy=0;" parent="1" source="q2oULeBiIMyMmIxV7hVm-14" target="dva9v5aQtzbPUR5y3_-g-8" edge="1">
          <mxGeometry relative="1" as="geometry">
            <mxPoint x="1159.5" y="810.3562237762237" as="targetPoint" />
          </mxGeometry>
        </mxCell>
        <mxCell id="q2oULeBiIMyMmIxV7hVm-14" value="&lt;span&gt;i&lt;/span&gt;n&lt;span&gt;s&lt;/span&gt;t&lt;span&gt;a&lt;/span&gt;n&lt;span&gt;t&lt;/span&gt; &lt;span&gt;o&lt;/span&gt;f&lt;span&gt; &lt;/span&gt;o&lt;span&gt;c&lt;/span&gt;c&lt;span&gt;u&lt;/span&gt;r&lt;span&gt;e&lt;/span&gt;n&lt;span&gt;c&lt;/span&gt;e&lt;span&gt;&amp;nbsp;&lt;/span&gt;" style="ellipse;whiteSpace=wrap;html=1;fontStyle=0" parent="1" vertex="1">
          <mxGeometry x="1168.5" y="819.8299999999999" width="80" height="60" as="geometry" />
        </mxCell>
        <mxCell id="q2oULeBiIMyMmIxV7hVm-19" style="edgeStyle=none;rounded=0;orthogonalLoop=1;jettySize=auto;html=1;exitX=0;exitY=0.5;exitDx=0;exitDy=0;endArrow=none;endFill=0;" parent="1" source="q2oULeBiIMyMmIxV7hVm-16" target="dva9v5aQtzbPUR5y3_-g-8" edge="1">
          <mxGeometry relative="1" as="geometry">
            <mxPoint x="1159.5" y="799.0799999999999" as="targetPoint" />
          </mxGeometry>
        </mxCell>
        <mxCell id="q2oULeBiIMyMmIxV7hVm-16" value="severity" style="ellipse;whiteSpace=wrap;html=1;fontStyle=0" parent="1" vertex="1">
          <mxGeometry x="1183" y="744.7099999999999" width="80" height="60" as="geometry" />
        </mxCell>
        <mxCell id="q2oULeBiIMyMmIxV7hVm-17" value="short description" style="ellipse;whiteSpace=wrap;html=1;fontStyle=0" parent="1" vertex="1">
          <mxGeometry x="1126.5" y="696.5799999999999" width="80" height="60" as="geometry" />
        </mxCell>
        <mxCell id="EDN94cZxPP0RlWnuWc6e-15" style="edgeStyle=none;rounded=0;orthogonalLoop=1;jettySize=auto;html=1;exitX=0.5;exitY=0;exitDx=0;exitDy=0;entryX=0.5;entryY=1;entryDx=0;entryDy=0;startArrow=none;startFill=0;endArrow=none;endFill=0;" parent="1" source="EDN94cZxPP0RlWnuWc6e-12" target="EDN94cZxPP0RlWnuWc6e-1" edge="1">
          <mxGeometry relative="1" as="geometry">
            <mxPoint x="911.4999999999995" y="820.3299999999999" as="targetPoint" />
          </mxGeometry>
        </mxCell>
        <mxCell id="EDN94cZxPP0RlWnuWc6e-12" value="causes" style="ellipse;whiteSpace=wrap;html=1;" parent="1" vertex="1">
          <mxGeometry x="940" y="862.8299999999999" width="80" height="60" as="geometry" />
        </mxCell>
        <mxCell id="EDN94cZxPP0RlWnuWc6e-14" style="rounded=0;orthogonalLoop=1;jettySize=auto;html=1;exitX=0.5;exitY=0;exitDx=0;exitDy=0;entryX=0.5;entryY=1;entryDx=0;entryDy=0;startArrow=none;startFill=0;endArrow=none;endFill=0;" parent="1" source="EDN94cZxPP0RlWnuWc6e-13" target="EDN94cZxPP0RlWnuWc6e-1" edge="1">
          <mxGeometry relative="1" as="geometry">
            <mxPoint x="911.4999999999995" y="820.3299999999999" as="targetPoint" />
          </mxGeometry>
        </mxCell>
        <mxCell id="EDN94cZxPP0RlWnuWc6e-13" value="report" style="ellipse;whiteSpace=wrap;html=1;" parent="1" vertex="1">
          <mxGeometry x="803" y="862.8299999999999" width="80" height="60" as="geometry" />
        </mxCell>
        <mxCell id="sUP068O2RiSsUyLgRWOE-52" style="edgeStyle=orthogonalEdgeStyle;rounded=0;orthogonalLoop=1;jettySize=auto;html=1;exitX=1;exitY=0.5;exitDx=0;exitDy=0;entryX=0.5;entryY=1;entryDx=0;entryDy=0;endArrow=none;endFill=0;" parent="1" source="sUP068O2RiSsUyLgRWOE-51" target="dva9v5aQtzbPUR5y3_-g-8" edge="1">
          <mxGeometry relative="1" as="geometry">
            <Array as="points" />
            <mxPoint x="1116.5000000000005" y="819.0799999999999" as="targetPoint" />
          </mxGeometry>
        </mxCell>
        <mxCell id="sUP068O2RiSsUyLgRWOE-54" style="edgeStyle=orthogonalEdgeStyle;rounded=0;orthogonalLoop=1;jettySize=auto;html=1;exitX=0;exitY=0.5;exitDx=0;exitDy=0;entryX=0.5;entryY=0;entryDx=0;entryDy=0;endArrow=none;endFill=0;" parent="1" source="sUP068O2RiSsUyLgRWOE-51" target="sUP068O2RiSsUyLgRWOE-53" edge="1">
          <mxGeometry relative="1" as="geometry" />
        </mxCell>
        <mxCell id="sUP068O2RiSsUyLgRWOE-51" value="" style="triangle;whiteSpace=wrap;html=1;direction=north;" parent="1" vertex="1">
          <mxGeometry x="1093.5" y="849.0799999999999" width="46" height="40" as="geometry" />
        </mxCell>
        <mxCell id="sUP068O2RiSsUyLgRWOE-53" value="Incident on Line" style="rounded=0;whiteSpace=wrap;html=1;" parent="1" vertex="1">
          <mxGeometry x="1073.5" y="929.0799999999999" width="86" height="40" as="geometry" />
        </mxCell>
        <mxCell id="sUP068O2RiSsUyLgRWOE-56" style="edgeStyle=orthogonalEdgeStyle;rounded=0;orthogonalLoop=1;jettySize=auto;html=1;exitX=0.5;exitY=0;exitDx=0;exitDy=0;entryX=0.5;entryY=1;entryDx=0;entryDy=0;endArrow=none;endFill=0;" parent="1" source="sUP068O2RiSsUyLgRWOE-55" target="sUP068O2RiSsUyLgRWOE-53" edge="1">
          <mxGeometry relative="1" as="geometry" />
        </mxCell>
        <mxCell id="sUP068O2RiSsUyLgRWOE-55" value="point of the line" style="ellipse;whiteSpace=wrap;html=1;" parent="1" vertex="1">
          <mxGeometry x="1076.5" y="1006.5799999999999" width="80" height="60" as="geometry" />
        </mxCell>
        <mxCell id="ZZck1GwxrWhiUM9QQnXZ-2" style="edgeStyle=orthogonalEdgeStyle;rounded=0;orthogonalLoop=1;jettySize=auto;html=1;exitX=0;exitY=0.5;exitDx=0;exitDy=0;entryX=1;entryY=0.5;entryDx=0;entryDy=0;endArrow=block;endFill=1;shape=link;" parent="1" source="a2J0Nc1vYzjpuzIybUrS-5" target="a2J0Nc1vYzjpuzIybUrS-8" edge="1">
          <mxGeometry relative="1" as="geometry" />
        </mxCell>
        <mxCell id="inZ4FwlJiKwJhEzPIRPx-20" style="edgeStyle=orthogonalEdgeStyle;shape=link;rounded=0;orthogonalLoop=1;jettySize=auto;html=1;exitX=0.5;exitY=1;exitDx=0;exitDy=0;entryX=0.5;entryY=0;entryDx=0;entryDy=0;" parent="1" source="a2J0Nc1vYzjpuzIybUrS-5" target="a2J0Nc1vYzjpuzIybUrS-93" edge="1">
          <mxGeometry relative="1" as="geometry" />
        </mxCell>
        <mxCell id="a2J0Nc1vYzjpuzIybUrS-5" value="Power Transformer" style="rounded=0;whiteSpace=wrap;html=1;" parent="1" vertex="1">
          <mxGeometry x="322.5" y="396.22" width="93" height="40" as="geometry" />
        </mxCell>
        <mxCell id="a2J0Nc1vYzjpuzIybUrS-6" style="edgeStyle=orthogonalEdgeStyle;rounded=0;jumpStyle=none;orthogonalLoop=1;jettySize=auto;html=1;exitX=1;exitY=0.5;exitDx=0;exitDy=0;entryX=0;entryY=0.5;entryDx=0;entryDy=0;endArrow=none;endFill=0;" parent="1" source="a2J0Nc1vYzjpuzIybUrS-7" target="a2J0Nc1vYzjpuzIybUrS-8" edge="1">
          <mxGeometry relative="1" as="geometry" />
        </mxCell>
        <mxCell id="a2J0Nc1vYzjpuzIybUrS-7" value="Bus Bar" style="rounded=0;whiteSpace=wrap;html=1;" parent="1" vertex="1">
          <mxGeometry x="57" y="395.91" width="86" height="40" as="geometry" />
        </mxCell>
        <mxCell id="a2J0Nc1vYzjpuzIybUrS-8" value="" style="rhombus;whiteSpace=wrap;html=1;" parent="1" vertex="1">
          <mxGeometry x="199" y="395.91" width="40" height="40" as="geometry" />
        </mxCell>
        <mxCell id="sUP068O2RiSsUyLgRWOE-22" value="" style="rhombus;whiteSpace=wrap;html=1;verticalAlign=top;" parent="1" vertex="1">
          <mxGeometry x="-40" y="395.91" width="40" height="40" as="geometry" />
        </mxCell>
        <mxCell id="a2J0Nc1vYzjpuzIybUrS-56" value="connects &amp;gt;" style="text;html=1;align=center;verticalAlign=middle;resizable=0;points=[];autosize=1;" parent="1" vertex="1">
          <mxGeometry x="-55" y="373.41" width="70" height="20" as="geometry" />
        </mxCell>
        <mxCell id="7febHckpT6x9cNdqsE0F-14" style="edgeStyle=orthogonalEdgeStyle;rounded=0;orthogonalLoop=1;jettySize=auto;html=1;exitX=0.5;exitY=1;exitDx=0;exitDy=0;entryX=0.5;entryY=0;entryDx=0;entryDy=0;shape=link;" parent="1" source="a2J0Nc1vYzjpuzIybUrS-55" target="KIF1mdX3ea5FJy20ws_q-3" edge="1">
          <mxGeometry relative="1" as="geometry">
            <mxPoint x="-20" y="517.42" as="targetPoint" />
          </mxGeometry>
        </mxCell>
        <mxCell id="a2J0Nc1vYzjpuzIybUrS-72" value="&amp;lt; connected_to" style="text;html=1;align=center;verticalAlign=middle;resizable=0;points=[];autosize=1;" parent="1" vertex="1">
          <mxGeometry x="170" y="373.41" width="100" height="20" as="geometry" />
        </mxCell>
        <mxCell id="a2J0Nc1vYzjpuzIybUrS-87" value="" style="shape=link;endArrow=classic;html=1;strokeWidth=1;fillColor=none;exitX=1;exitY=0.5;exitDx=0;exitDy=0;" parent="1" source="L2RW_gPPLHdNKHFFvyPd-1" edge="1">
          <mxGeometry width="50" height="50" relative="1" as="geometry">
            <mxPoint x="-110" y="416.41" as="sourcePoint" />
            <mxPoint x="-40" y="415.91" as="targetPoint" />
          </mxGeometry>
        </mxCell>
        <mxCell id="a2J0Nc1vYzjpuzIybUrS-127" style="edgeStyle=none;rounded=0;jumpSize=10;orthogonalLoop=1;jettySize=auto;html=1;exitX=0;exitY=0;exitDx=0;exitDy=0;startArrow=none;startFill=0;endArrow=none;endFill=0;strokeWidth=1;fillColor=none;entryX=1;entryY=1;entryDx=0;entryDy=0;" parent="1" source="a2J0Nc1vYzjpuzIybUrS-88" target="a2J0Nc1vYzjpuzIybUrS-128" edge="1">
          <mxGeometry relative="1" as="geometry">
            <mxPoint x="459" y="764.0799999999999" as="targetPoint" />
          </mxGeometry>
        </mxCell>
        <mxCell id="a2J0Nc1vYzjpuzIybUrS-129" style="edgeStyle=none;rounded=0;jumpSize=10;orthogonalLoop=1;jettySize=auto;html=1;exitX=0;exitY=0.75;exitDx=0;exitDy=0;startArrow=none;startFill=0;endArrow=none;endFill=0;strokeWidth=1;fillColor=none;entryX=1;entryY=0.5;entryDx=0;entryDy=0;" parent="1" source="a2J0Nc1vYzjpuzIybUrS-88" target="a2J0Nc1vYzjpuzIybUrS-130" edge="1">
          <mxGeometry relative="1" as="geometry">
            <mxPoint x="469" y="814.4133333333334" as="targetPoint" />
          </mxGeometry>
        </mxCell>
        <mxCell id="inZ4FwlJiKwJhEzPIRPx-24" style="edgeStyle=orthogonalEdgeStyle;shape=link;rounded=0;orthogonalLoop=1;jettySize=auto;html=1;exitX=1;exitY=0.5;exitDx=0;exitDy=0;entryX=0;entryY=0.5;entryDx=0;entryDy=0;" parent="1" source="a2J0Nc1vYzjpuzIybUrS-88" target="L2RW_gPPLHdNKHFFvyPd-66" edge="1">
          <mxGeometry relative="1" as="geometry" />
        </mxCell>
        <mxCell id="a2J0Nc1vYzjpuzIybUrS-88" value="Substation" style="rounded=0;whiteSpace=wrap;html=1;" parent="1" vertex="1">
          <mxGeometry x="329" y="784.0799999999999" width="80" height="40" as="geometry" />
        </mxCell>
        <mxCell id="a2J0Nc1vYzjpuzIybUrS-94" style="edgeStyle=orthogonalEdgeStyle;rounded=0;jumpSize=10;orthogonalLoop=1;jettySize=auto;html=1;exitX=0.5;exitY=1;exitDx=0;exitDy=0;entryX=0.5;entryY=0;entryDx=0;entryDy=0;startArrow=none;startFill=0;endArrow=none;endFill=0;strokeWidth=1;fillColor=none;" parent="1" source="a2J0Nc1vYzjpuzIybUrS-93" target="a2J0Nc1vYzjpuzIybUrS-88" edge="1">
          <mxGeometry relative="1" as="geometry" />
        </mxCell>
        <mxCell id="a2J0Nc1vYzjpuzIybUrS-93" value="" style="rhombus;whiteSpace=wrap;html=1;" parent="1" vertex="1">
          <mxGeometry x="349" y="691.5799999999999" width="40" height="40" as="geometry" />
        </mxCell>
        <mxCell id="a2J0Nc1vYzjpuzIybUrS-101" style="edgeStyle=orthogonalEdgeStyle;rounded=0;jumpSize=10;orthogonalLoop=1;jettySize=auto;html=1;exitX=0.5;exitY=0;exitDx=0;exitDy=0;startArrow=none;startFill=0;endArrow=none;endFill=0;strokeWidth=1;fillColor=none;shape=link;entryX=0.5;entryY=1;entryDx=0;entryDy=0;" parent="1" source="i0ntEIKi_8kebWYaH0-n-26" target="a2J0Nc1vYzjpuzIybUrS-59" edge="1">
          <mxGeometry relative="1" as="geometry">
            <mxPoint x="190" y="473.41" as="targetPoint" />
            <mxPoint x="220" y="517.42" as="sourcePoint" />
          </mxGeometry>
        </mxCell>
        <mxCell id="a2J0Nc1vYzjpuzIybUrS-110" value="measured_at PL-BB &amp;gt;" style="text;html=1;align=center;verticalAlign=middle;resizable=0;points=[];autosize=1;rotation=270;" parent="1" vertex="1">
          <mxGeometry x="-120" y="532.91" width="130" height="20" as="geometry" />
        </mxCell>
        <mxCell id="a2J0Nc1vYzjpuzIybUrS-113" style="rounded=0;jumpSize=10;orthogonalLoop=1;jettySize=auto;html=1;exitX=0.5;exitY=0;exitDx=0;exitDy=0;startArrow=none;startFill=0;endArrow=none;endFill=0;strokeWidth=1;fillColor=none;entryX=0;entryY=1;entryDx=0;entryDy=0;" parent="1" source="a2J0Nc1vYzjpuzIybUrS-112" target="a2J0Nc1vYzjpuzIybUrS-121" edge="1">
          <mxGeometry relative="1" as="geometry">
            <mxPoint x="-124" y="640.54" as="targetPoint" />
          </mxGeometry>
        </mxCell>
        <mxCell id="a2J0Nc1vYzjpuzIybUrS-112" value="current" style="ellipse;whiteSpace=wrap;html=1;fillColor=none;" parent="1" vertex="1">
          <mxGeometry x="-160" y="652.16" width="60" height="30" as="geometry" />
        </mxCell>
        <mxCell id="a2J0Nc1vYzjpuzIybUrS-118" style="edgeStyle=none;rounded=0;jumpSize=10;orthogonalLoop=1;jettySize=auto;html=1;exitX=0.5;exitY=0;exitDx=0;exitDy=0;startArrow=none;startFill=0;endArrow=none;endFill=0;strokeWidth=1;fillColor=none;entryX=0.25;entryY=1;entryDx=0;entryDy=0;" parent="1" source="a2J0Nc1vYzjpuzIybUrS-117" target="a2J0Nc1vYzjpuzIybUrS-121" edge="1">
          <mxGeometry relative="1" as="geometry">
            <mxPoint x="-88" y="640.55" as="targetPoint" />
          </mxGeometry>
        </mxCell>
        <mxCell id="a2J0Nc1vYzjpuzIybUrS-117" value="voltage" style="ellipse;whiteSpace=wrap;html=1;fillColor=none;" parent="1" vertex="1">
          <mxGeometry x="-95" y="664.3399999999999" width="60" height="35" as="geometry" />
        </mxCell>
        <mxCell id="a2J0Nc1vYzjpuzIybUrS-122" style="edgeStyle=none;rounded=0;jumpSize=10;orthogonalLoop=1;jettySize=auto;html=1;exitX=0.75;exitY=1;exitDx=0;exitDy=0;entryX=0.5;entryY=0;entryDx=0;entryDy=0;startArrow=none;startFill=0;endArrow=none;endFill=0;strokeWidth=1;fillColor=none;" parent="1" source="a2J0Nc1vYzjpuzIybUrS-121" target="HleIgmeVltsVrSch5Aos-1" edge="1">
          <mxGeometry relative="1" as="geometry">
            <mxPoint x="-51" y="664.04" as="targetPoint" />
          </mxGeometry>
        </mxCell>
        <mxCell id="a2J0Nc1vYzjpuzIybUrS-125" style="edgeStyle=none;rounded=0;jumpSize=10;orthogonalLoop=1;jettySize=auto;html=1;exitX=1;exitY=1;exitDx=0;exitDy=0;entryX=0.5;entryY=0;entryDx=0;entryDy=0;startArrow=none;startFill=0;endArrow=none;endFill=0;strokeWidth=1;fillColor=none;" parent="1" source="a2J0Nc1vYzjpuzIybUrS-121" target="a2J0Nc1vYzjpuzIybUrS-124" edge="1">
          <mxGeometry relative="1" as="geometry">
            <mxPoint x="17.15000000000009" y="670.4299999999998" as="targetPoint" />
          </mxGeometry>
        </mxCell>
        <mxCell id="a2J0Nc1vYzjpuzIybUrS-121" value="PL-BB Reading" style="shape=ext;double=1;rounded=0;whiteSpace=wrap;html=1;" parent="1" vertex="1">
          <mxGeometry x="-70" y="603.41" width="100" height="40" as="geometry" />
        </mxCell>
        <mxCell id="a2J0Nc1vYzjpuzIybUrS-124" value="&lt;u&gt;t&lt;/u&gt;i&lt;u&gt;m&lt;/u&gt;e&lt;u&gt;&amp;nbsp;&lt;/u&gt;" style="ellipse;whiteSpace=wrap;html=1;fillColor=none;fontStyle=0" parent="1" vertex="1">
          <mxGeometry x="24" y="660.28" width="50" height="28.17" as="geometry" />
        </mxCell>
        <mxCell id="a2J0Nc1vYzjpuzIybUrS-126" value="&amp;lt; located_in" style="text;html=1;align=center;verticalAlign=middle;resizable=0;points=[];autosize=1;rotation=-90;" parent="1" vertex="1">
          <mxGeometry x="363.5" y="701.5799999999999" width="80" height="20" as="geometry" />
        </mxCell>
        <mxCell id="a2J0Nc1vYzjpuzIybUrS-128" value="&lt;span&gt;gps coordinates&lt;/span&gt;" style="ellipse;whiteSpace=wrap;html=1;fillColor=none;fontStyle=4" parent="1" vertex="1">
          <mxGeometry x="209" y="733.41" width="120" height="50.67" as="geometry" />
        </mxCell>
        <mxCell id="a2J0Nc1vYzjpuzIybUrS-130" value="name" style="ellipse;whiteSpace=wrap;html=1;fillColor=none;fontStyle=0" parent="1" vertex="1">
          <mxGeometry x="199" y="792.8299999999999" width="80" height="47.5" as="geometry" />
        </mxCell>
        <mxCell id="a2J0Nc1vYzjpuzIybUrS-135" value="&amp;lt; supervises" style="text;html=1;align=center;verticalAlign=middle;resizable=0;points=[];autosize=1;" parent="1" vertex="1">
          <mxGeometry x="479" y="764.0799999999999" width="80" height="20" as="geometry" />
        </mxCell>
        <mxCell id="a2J0Nc1vYzjpuzIybUrS-160" style="edgeStyle=none;rounded=0;jumpSize=10;orthogonalLoop=1;jettySize=auto;html=1;startArrow=block;startFill=1;endArrow=none;endFill=0;strokeWidth=1;fillColor=none;entryX=0.001;entryY=0.341;entryDx=0;entryDy=0;entryPerimeter=0;exitX=1;exitY=0.5;exitDx=0;exitDy=0;" parent="1" source="EDN94cZxPP0RlWnuWc6e-1" target="dva9v5aQtzbPUR5y3_-g-8" edge="1">
          <mxGeometry relative="1" as="geometry">
            <mxPoint x="1071.5" y="797.8299999999999" as="targetPoint" />
          </mxGeometry>
        </mxCell>
        <mxCell id="cv97ledu6ouqQ9UIFpWF-10" style="edgeStyle=orthogonalEdgeStyle;rounded=0;orthogonalLoop=1;jettySize=auto;html=1;exitX=0;exitY=0.5;exitDx=0;exitDy=0;entryX=1;entryY=0.5;entryDx=0;entryDy=0;startArrow=block;startFill=1;endArrow=none;endFill=0;" parent="1" source="cv97ledu6ouqQ9UIFpWF-8" target="L2RW_gPPLHdNKHFFvyPd-32" edge="1">
          <mxGeometry relative="1" as="geometry" />
        </mxCell>
        <mxCell id="cv97ledu6ouqQ9UIFpWF-8" value="" style="rhombus;whiteSpace=wrap;html=1;" parent="1" vertex="1">
          <mxGeometry x="-232" y="453.41" width="40" height="40" as="geometry" />
        </mxCell>
        <mxCell id="EDN94cZxPP0RlWnuWc6e-4" value="analyses &amp;gt;" style="text;html=1;strokeColor=none;fillColor=none;align=center;verticalAlign=middle;whiteSpace=wrap;rounded=0;" parent="1" vertex="1">
          <mxGeometry x="881.5" y="756.5799999999999" width="67" height="20" as="geometry" />
        </mxCell>
        <mxCell id="cv97ledu6ouqQ9UIFpWF-21" style="edgeStyle=orthogonalEdgeStyle;rounded=0;orthogonalLoop=1;jettySize=auto;html=1;exitX=0;exitY=0.5;exitDx=0;exitDy=0;startArrow=block;startFill=1;endArrow=none;endFill=0;entryX=0.5;entryY=1;entryDx=0;entryDy=0;" parent="1" source="cv97ledu6ouqQ9UIFpWF-17" target="L2RW_gPPLHdNKHFFvyPd-32" edge="1">
          <mxGeometry relative="1" as="geometry">
            <mxPoint x="-290" y="533.41" as="targetPoint" />
          </mxGeometry>
        </mxCell>
        <mxCell id="cv97ledu6ouqQ9UIFpWF-17" value="" style="rhombus;whiteSpace=wrap;html=1;" parent="1" vertex="1">
          <mxGeometry x="-277" y="703.41" width="40" height="40" as="geometry" />
        </mxCell>
        <mxCell id="cv97ledu6ouqQ9UIFpWF-18" value="protects PL-BB &amp;gt;" style="text;html=1;align=center;verticalAlign=middle;resizable=0;points=[];autosize=1;" parent="1" vertex="1">
          <mxGeometry x="-260" y="493.41" width="110" height="20" as="geometry" />
        </mxCell>
        <mxCell id="cv97ledu6ouqQ9UIFpWF-23" value="protects PT-BB &amp;gt;" style="text;html=1;align=center;verticalAlign=middle;resizable=0;points=[];autosize=1;" parent="1" vertex="1">
          <mxGeometry x="-312" y="675.28" width="110" height="20" as="geometry" />
        </mxCell>
        <mxCell id="HleIgmeVltsVrSch5Aos-1" value="&lt;u&gt;d&lt;/u&gt;a&lt;u&gt;t&lt;/u&gt;e&lt;u&gt;&amp;nbsp;&lt;/u&gt;" style="ellipse;whiteSpace=wrap;html=1;" parent="1" vertex="1">
          <mxGeometry x="-26" y="667.7599999999999" width="50" height="33.13" as="geometry" />
        </mxCell>
        <mxCell id="dva9v5aQtzbPUR5y3_-g-6" value="(IC-1)" style="text;html=1;align=center;verticalAlign=middle;resizable=0;points=[];autosize=1;" parent="1" vertex="1">
          <mxGeometry x="1169.5" y="922.8299999999999" width="50" height="20" as="geometry" />
        </mxCell>
        <mxCell id="inZ4FwlJiKwJhEzPIRPx-26" style="edgeStyle=orthogonalEdgeStyle;shape=link;rounded=0;orthogonalLoop=1;jettySize=auto;html=1;exitX=0.5;exitY=0;exitDx=0;exitDy=0;entryX=0.5;entryY=1;entryDx=0;entryDy=0;" parent="1" source="dva9v5aQtzbPUR5y3_-g-8" target="i0ntEIKi_8kebWYaH0-n-48" edge="1">
          <mxGeometry relative="1" as="geometry" />
        </mxCell>
        <mxCell id="dva9v5aQtzbPUR5y3_-g-8" value="Incident" style="shape=ext;double=1;rounded=0;whiteSpace=wrap;html=1;" parent="1" vertex="1">
          <mxGeometry x="1071.5" y="783.4999999999999" width="90" height="45.99" as="geometry" />
        </mxCell>
        <mxCell id="7febHckpT6x9cNdqsE0F-2" value="(IC-3)" style="text;html=1;align=center;verticalAlign=middle;resizable=0;points=[];autosize=1;" parent="1" vertex="1">
          <mxGeometry x="765" y="484.71000000000004" width="50" height="20" as="geometry" />
        </mxCell>
        <mxCell id="7febHckpT6x9cNdqsE0F-3" value="(IC-4)" style="text;html=1;align=center;verticalAlign=middle;resizable=0;points=[];autosize=1;" parent="1" vertex="1">
          <mxGeometry x="858" y="484.71000000000004" width="50" height="20" as="geometry" />
        </mxCell>
        <mxCell id="7febHckpT6x9cNdqsE0F-7" value="(IC-5)" style="text;html=1;align=center;verticalAlign=middle;resizable=0;points=[];autosize=1;" parent="1" vertex="1">
          <mxGeometry x="-45" y="435.90000000000003" width="50" height="20" as="geometry" />
        </mxCell>
        <mxCell id="7febHckpT6x9cNdqsE0F-8" value="(IC-6)" style="text;html=1;align=center;verticalAlign=middle;resizable=0;points=[];autosize=1;" parent="1" vertex="1">
          <mxGeometry x="194" y="439.03000000000003" width="50" height="20" as="geometry" />
        </mxCell>
        <mxCell id="KIF1mdX3ea5FJy20ws_q-5" value="" style="group" parent="1" vertex="1" connectable="0">
          <mxGeometry x="-40" y="512.91" width="40" height="40" as="geometry" />
        </mxCell>
        <mxCell id="KIF1mdX3ea5FJy20ws_q-4" value="" style="group" parent="KIF1mdX3ea5FJy20ws_q-5" vertex="1" connectable="0">
          <mxGeometry width="40" height="40" as="geometry" />
        </mxCell>
        <mxCell id="KIF1mdX3ea5FJy20ws_q-2" value="" style="rhombus;whiteSpace=wrap;html=1;" parent="KIF1mdX3ea5FJy20ws_q-4" vertex="1">
          <mxGeometry width="40" height="40" as="geometry" />
        </mxCell>
        <mxCell id="KIF1mdX3ea5FJy20ws_q-3" value="" style="rhombus;whiteSpace=wrap;html=1;" parent="KIF1mdX3ea5FJy20ws_q-4" vertex="1">
          <mxGeometry x="5" y="5" width="30" height="30" as="geometry" />
        </mxCell>
        <mxCell id="i0ntEIKi_8kebWYaH0-n-15" style="rounded=0;jumpSize=10;orthogonalLoop=1;jettySize=auto;html=1;exitX=0.5;exitY=0;exitDx=0;exitDy=0;startArrow=none;startFill=0;endArrow=none;endFill=0;strokeWidth=1;fillColor=none;entryX=0;entryY=1;entryDx=0;entryDy=0;" parent="1" source="i0ntEIKi_8kebWYaH0-n-16" target="i0ntEIKi_8kebWYaH0-n-21" edge="1">
          <mxGeometry relative="1" as="geometry">
            <mxPoint x="116" y="650.3299999999999" as="targetPoint" />
          </mxGeometry>
        </mxCell>
        <mxCell id="i0ntEIKi_8kebWYaH0-n-16" value="current" style="ellipse;whiteSpace=wrap;html=1;fillColor=none;" parent="1" vertex="1">
          <mxGeometry x="80" y="665.28" width="60" height="30" as="geometry" />
        </mxCell>
        <mxCell id="i0ntEIKi_8kebWYaH0-n-17" style="edgeStyle=none;rounded=0;jumpSize=10;orthogonalLoop=1;jettySize=auto;html=1;exitX=0.5;exitY=0;exitDx=0;exitDy=0;startArrow=none;startFill=0;endArrow=none;endFill=0;strokeWidth=1;fillColor=none;entryX=0.25;entryY=1;entryDx=0;entryDy=0;" parent="1" source="i0ntEIKi_8kebWYaH0-n-18" target="i0ntEIKi_8kebWYaH0-n-21" edge="1">
          <mxGeometry relative="1" as="geometry">
            <mxPoint x="152" y="650.3399999999999" as="targetPoint" />
          </mxGeometry>
        </mxCell>
        <mxCell id="i0ntEIKi_8kebWYaH0-n-18" value="voltage" style="ellipse;whiteSpace=wrap;html=1;fillColor=none;" parent="1" vertex="1">
          <mxGeometry x="145" y="674.1299999999999" width="60" height="35" as="geometry" />
        </mxCell>
        <mxCell id="i0ntEIKi_8kebWYaH0-n-19" style="edgeStyle=none;rounded=0;jumpSize=10;orthogonalLoop=1;jettySize=auto;html=1;exitX=0.75;exitY=1;exitDx=0;exitDy=0;entryX=0.5;entryY=0;entryDx=0;entryDy=0;startArrow=none;startFill=0;endArrow=none;endFill=0;strokeWidth=1;fillColor=none;" parent="1" source="i0ntEIKi_8kebWYaH0-n-21" target="i0ntEIKi_8kebWYaH0-n-23" edge="1">
          <mxGeometry relative="1" as="geometry">
            <mxPoint x="189" y="673.8299999999999" as="targetPoint" />
          </mxGeometry>
        </mxCell>
        <mxCell id="i0ntEIKi_8kebWYaH0-n-20" style="edgeStyle=none;rounded=0;jumpSize=10;orthogonalLoop=1;jettySize=auto;html=1;exitX=1;exitY=1;exitDx=0;exitDy=0;entryX=0.5;entryY=0;entryDx=0;entryDy=0;startArrow=none;startFill=0;endArrow=none;endFill=0;strokeWidth=1;fillColor=none;" parent="1" source="i0ntEIKi_8kebWYaH0-n-21" target="i0ntEIKi_8kebWYaH0-n-22" edge="1">
          <mxGeometry relative="1" as="geometry">
            <mxPoint x="257.1500000000001" y="680.2199999999998" as="targetPoint" />
          </mxGeometry>
        </mxCell>
        <mxCell id="i0ntEIKi_8kebWYaH0-n-21" value="PT-BB Reading" style="shape=ext;double=1;rounded=0;whiteSpace=wrap;html=1;" parent="1" vertex="1">
          <mxGeometry x="169" y="603.41" width="100" height="40" as="geometry" />
        </mxCell>
        <mxCell id="i0ntEIKi_8kebWYaH0-n-22" value="&lt;u&gt;t&lt;/u&gt;i&lt;u&gt;m&lt;/u&gt;e&lt;u&gt;&amp;nbsp;&lt;/u&gt;" style="ellipse;whiteSpace=wrap;html=1;fillColor=none;fontStyle=0" parent="1" vertex="1">
          <mxGeometry x="265" y="667.7599999999999" width="50" height="28.17" as="geometry" />
        </mxCell>
        <mxCell id="i0ntEIKi_8kebWYaH0-n-23" value="&lt;u&gt;d&lt;/u&gt;a&lt;u&gt;t&lt;/u&gt;e&lt;u&gt;&amp;nbsp;&lt;/u&gt;" style="ellipse;whiteSpace=wrap;html=1;" parent="1" vertex="1">
          <mxGeometry x="209" y="674.1299999999999" width="50" height="33.13" as="geometry" />
        </mxCell>
        <mxCell id="i0ntEIKi_8kebWYaH0-n-24" value="" style="group" parent="1" vertex="1" connectable="0">
          <mxGeometry x="200" y="510.28000000000003" width="40" height="40" as="geometry" />
        </mxCell>
        <mxCell id="i0ntEIKi_8kebWYaH0-n-25" value="" style="group" parent="i0ntEIKi_8kebWYaH0-n-24" vertex="1" connectable="0">
          <mxGeometry width="40" height="40" as="geometry" />
        </mxCell>
        <mxCell id="i0ntEIKi_8kebWYaH0-n-26" value="" style="rhombus;whiteSpace=wrap;html=1;" parent="i0ntEIKi_8kebWYaH0-n-25" vertex="1">
          <mxGeometry width="40" height="40" as="geometry" />
        </mxCell>
        <mxCell id="i0ntEIKi_8kebWYaH0-n-27" value="" style="rhombus;whiteSpace=wrap;html=1;" parent="i0ntEIKi_8kebWYaH0-n-25" vertex="1">
          <mxGeometry x="5" y="5" width="30" height="30" as="geometry" />
        </mxCell>
        <mxCell id="i0ntEIKi_8kebWYaH0-n-46" value="" style="group" parent="1" vertex="1" connectable="0">
          <mxGeometry x="1096.5" y="621.5799999999999" width="40" height="40" as="geometry" />
        </mxCell>
        <mxCell id="i0ntEIKi_8kebWYaH0-n-47" value="" style="group" parent="i0ntEIKi_8kebWYaH0-n-46" vertex="1" connectable="0">
          <mxGeometry width="40" height="40" as="geometry" />
        </mxCell>
        <mxCell id="i0ntEIKi_8kebWYaH0-n-48" value="" style="rhombus;whiteSpace=wrap;html=1;" parent="i0ntEIKi_8kebWYaH0-n-47" vertex="1">
          <mxGeometry width="40" height="40" as="geometry" />
        </mxCell>
        <mxCell id="i0ntEIKi_8kebWYaH0-n-49" value="" style="rhombus;whiteSpace=wrap;html=1;" parent="i0ntEIKi_8kebWYaH0-n-47" vertex="1">
          <mxGeometry x="5" y="5" width="30" height="30" as="geometry" />
        </mxCell>
        <mxCell id="i0ntEIKi_8kebWYaH0-n-54" value="" style="endArrow=none;dashed=1;html=1;" parent="1" edge="1">
          <mxGeometry width="50" height="50" relative="1" as="geometry">
            <mxPoint x="1178" y="849.5399999999998" as="sourcePoint" />
            <mxPoint x="1239" y="850.0299999999999" as="targetPoint" />
          </mxGeometry>
        </mxCell>
        <mxCell id="i0ntEIKi_8kebWYaH0-n-55" value="" style="endArrow=none;dashed=1;html=1;" parent="1" edge="1">
          <mxGeometry width="50" height="50" relative="1" as="geometry">
            <mxPoint x="1178.4999999999995" y="862.8299999999999" as="sourcePoint" />
            <mxPoint x="1238.4999999999995" y="863.3199999999999" as="targetPoint" />
          </mxGeometry>
        </mxCell>
        <mxCell id="EDN94cZxPP0RlWnuWc6e-1" value="" style="rhombus;whiteSpace=wrap;html=1;" parent="1" vertex="1">
          <mxGeometry x="891.5" y="780.3299999999999" width="40" height="40" as="geometry" />
        </mxCell>
        <mxCell id="a2J0Nc1vYzjpuzIybUrS-157" style="edgeStyle=none;rounded=0;jumpSize=10;orthogonalLoop=1;jettySize=auto;html=1;exitX=0;exitY=1;exitDx=0;exitDy=0;entryX=0;entryY=0.5;entryDx=0;entryDy=0;startArrow=none;startFill=0;endArrow=none;endFill=0;strokeWidth=1;fillColor=none;" parent="1" source="EDN94cZxPP0RlWnuWc6e-1" target="EDN94cZxPP0RlWnuWc6e-1" edge="1">
          <mxGeometry x="815.5" y="747.8299999999999" as="geometry" />
        </mxCell>
        <mxCell id="7febHckpT6x9cNdqsE0F-1" value="(IC-2)" style="text;html=1;align=center;verticalAlign=middle;resizable=0;points=[];autosize=1;" parent="1" vertex="1">
          <mxGeometry x="978.5" y="772.2499999999999" width="50" height="20" as="geometry" />
        </mxCell>
        <mxCell id="ZZck1GwxrWhiUM9QQnXZ-3" value="measured_at PT-BB &amp;gt;" style="text;html=1;align=center;verticalAlign=middle;resizable=0;points=[];autosize=1;rotation=270;" parent="1" vertex="1">
          <mxGeometry x="120" y="522.91" width="130" height="20" as="geometry" />
        </mxCell>
        <mxCell id="inZ4FwlJiKwJhEzPIRPx-7" value="" style="group" parent="1" vertex="1" connectable="0">
          <mxGeometry x="-520" y="590" width="140" height="20" as="geometry" />
        </mxCell>
        <mxCell id="inZ4FwlJiKwJhEzPIRPx-2" value="" style="triangle;whiteSpace=wrap;html=1;fillColor=#000000;direction=north;" parent="1" vertex="1">
          <mxGeometry x="-29.99666666666667" y="552.6133333333333" width="20" height="9.333333333333334" as="geometry" />
        </mxCell>
        <mxCell id="inZ4FwlJiKwJhEzPIRPx-8" value="" style="endArrow=none;html=1;shape=link;exitX=0.5;exitY=0;exitDx=0;exitDy=0;entryX=0;entryY=0.5;entryDx=0;entryDy=0;" parent="1" source="a2J0Nc1vYzjpuzIybUrS-121" target="inZ4FwlJiKwJhEzPIRPx-2" edge="1">
          <mxGeometry width="50" height="50" relative="1" as="geometry">
            <mxPoint x="-20" y="603.41" as="sourcePoint" />
            <mxPoint x="-20" y="552.91" as="targetPoint" />
          </mxGeometry>
        </mxCell>
        <mxCell id="inZ4FwlJiKwJhEzPIRPx-14" value="" style="endArrow=none;html=1;shape=link;exitX=0.5;exitY=0;exitDx=0;exitDy=0;" parent="1" source="inZ4FwlJiKwJhEzPIRPx-13" edge="1">
          <mxGeometry width="50" height="50" relative="1" as="geometry">
            <mxPoint x="65" y="613.41" as="sourcePoint" />
            <mxPoint x="219" y="553.41" as="targetPoint" />
          </mxGeometry>
        </mxCell>
        <mxCell id="inZ4FwlJiKwJhEzPIRPx-13" value="" style="triangle;whiteSpace=wrap;html=1;fillColor=#000000;direction=north;" parent="1" vertex="1">
          <mxGeometry x="210.00333333333333" y="547.9133333333333" width="20" height="9.333333333333334" as="geometry" />
        </mxCell>
        <mxCell id="inZ4FwlJiKwJhEzPIRPx-15" value="" style="endArrow=none;html=1;shape=link;exitX=0.5;exitY=0;exitDx=0;exitDy=0;" parent="1" source="i0ntEIKi_8kebWYaH0-n-21" target="inZ4FwlJiKwJhEzPIRPx-13" edge="1">
          <mxGeometry width="50" height="50" relative="1" as="geometry">
            <mxPoint x="219" y="603.41" as="sourcePoint" />
            <mxPoint x="219" y="553.41" as="targetPoint" />
          </mxGeometry>
        </mxCell>
        <mxCell id="inZ4FwlJiKwJhEzPIRPx-17" value="" style="triangle;whiteSpace=wrap;html=1;fillColor=#000000;direction=west;" parent="1" vertex="1">
          <mxGeometry x="-193.66333333333336" y="463.2800000000001" width="9.333333333333334" height="20" as="geometry" />
        </mxCell>
        <mxCell id="inZ4FwlJiKwJhEzPIRPx-19" value="" style="triangle;whiteSpace=wrap;html=1;fillColor=#000000;direction=west;" parent="1" vertex="1">
          <mxGeometry x="-238.66333333333336" y="713.2800000000001" width="9.333333333333334" height="20" as="geometry" />
        </mxCell>
        <mxCell id="inZ4FwlJiKwJhEzPIRPx-21" value="" style="triangle;whiteSpace=wrap;html=1;fillColor=#000000;direction=south;" parent="1" vertex="1">
          <mxGeometry x="359.00333333333333" y="683.9133333333333" width="20" height="9.333333333333334" as="geometry" />
        </mxCell>
        <mxCell id="inZ4FwlJiKwJhEzPIRPx-25" value="" style="triangle;whiteSpace=wrap;html=1;fillColor=#000000;direction=east;" parent="1" vertex="1">
          <mxGeometry x="491.3366666666667" y="793.5799999999999" width="9.333333333333334" height="20" as="geometry" />
        </mxCell>
        <mxCell id="inZ4FwlJiKwJhEzPIRPx-27" value="" style="triangle;whiteSpace=wrap;html=1;fillColor=#000000;direction=north;" parent="1" vertex="1">
          <mxGeometry x="1106.5033333333333" y="660.3333333333333" width="20" height="9.333333333333334" as="geometry" />
        </mxCell>
        <mxCell id="inZ4FwlJiKwJhEzPIRPx-28" value="&lt;span style=&quot;text-align: center&quot;&gt;Integrity Constraints:&lt;br&gt;&lt;/span&gt;&lt;br&gt;IC-1: An Incident on Line can only happen in a Power Line.&lt;br&gt;&lt;div&gt;&lt;span&gt;IC-2: An Analyst cannot analyse an Incident that happens in an Element of the Substation he/she supervises.&lt;/span&gt;&lt;/div&gt;&lt;div&gt;&lt;span style=&quot;text-align: center&quot;&gt;IC-3: Phone number is unique.&lt;/span&gt;&lt;span&gt;&lt;br&gt;&lt;/span&gt;&lt;/div&gt;&lt;div&gt;&lt;span style=&quot;text-align: center&quot;&gt;IC-4: Tax payer id is unique.&lt;/span&gt;&lt;span style=&quot;text-align: center&quot;&gt;&lt;br&gt;&lt;/span&gt;&lt;/div&gt;&lt;div&gt;&lt;span style=&quot;text-align: center&quot;&gt;IC-5: Power Line has to connect to two different Bus Bars.&lt;/span&gt;&lt;span style=&quot;text-align: center&quot;&gt;&lt;br&gt;&lt;/span&gt;&lt;/div&gt;&lt;div&gt;&lt;span style=&quot;text-align: center&quot;&gt;IC-6: Power Transformer is conected to two different Bus Bars.&lt;/span&gt;&lt;span style=&quot;text-align: center&quot;&gt;&lt;br&gt;&lt;/span&gt;&lt;/div&gt;&lt;div&gt;&lt;span style=&quot;text-align: center&quot;&gt;IC-7: Bus Bar&#39;s operating voltage has to be equal to one of the Power Transformer&#39;s operating voltages.&lt;/span&gt;&lt;span style=&quot;text-align: center&quot;&gt;&lt;br&gt;&lt;/span&gt;&lt;/div&gt;" style="text;html=1;align=left;verticalAlign=middle;resizable=0;points=[];autosize=1;" parent="1" vertex="1">
          <mxGeometry x="298" y="913.41" width="590" height="130" as="geometry" />
        </mxCell>
      </root>
    </mxGraphModel>
  </diagram>
</mxfile>
